<?xml version="1.0" standalone="no"?><!-- Generator: Gravit.io --><svg xmlns="http://www.w3.org/2000/svg" xmlns:xlink="http://www.w3.org/1999/xlink" style="isolation:isolate" viewBox="0 0 222 20.000000000000004" width="222" height="20.000000000000004"><path d=" M 9.889763247280701 0.00005632945974810637 C 12.629628169236236 0.00005632945974810637 14.656925425428252 0.8495045824015544 16.520303953764788 2.5478377936877252 C 16.76646369284673 2.767522686689917 16.76646369284673 3.095923436998321 16.54677879984454 3.315608330000512 L 14.410202391748868 5.534425749322644 C 14.21811893402131 5.725382617855318 13.917319618987541 5.725382617855318 13.725236161259984 5.534425749322644 C 12.711869180462697 4.630901215026452 11.368974860162123 4.136891853070242 10.026643834458989 4.136891853070242 C 6.930776726920417 4.136891853070242 4.656756437049017 6.7122747525728546 4.656756437049017 9.780540424836792 C 4.656756437049017 12.82233125102098 6.958378162195052 15.34194798537688 10.054245269733624 15.34194798537688 C 11.341936719484929 15.34194798537688 12.738907321139889 14.876103353292745 13.725236161259984 14.02665510035094 C 13.917319618987541 13.862736372495458 14.273321804570578 13.862736372495458 14.43724053242606 14.054256535625575 L 16.574380235119172 16.328276825496975 C 16.76646369284673 16.520360283224534 16.738862257572094 16.87579917421013 16.54677879984454 17.06788263193769 C 14.684526860702887 18.876058289724952 12.328265559605024 19.726069837264202 9.889763247280701 19.726069837264202 C 4.410033403369632 19.726069837264202 3.552713678800501e-15 15.368986126054072 3.552713678800501e-15 9.890946165935329 C 3.552713678800501e-15 4.410653027426819 4.410033403369632 0.00005632945974810637 9.889763247280701 0.00005632945974810637 Z " fill="rgb(42,92,255)"/><path d=" M 36.76150670038925 0.4934460673587729 C 36.76150670038925 0.21968489300219607 37.00766643947119 4.773959005888173e-15 37.281427613827766 4.773959005888173e-15 L 37.96695713891409 4.773959005888173e-15 L 48.898252096864155 10.52008990181776 L 48.92529023754135 10.52008990181776 L 48.92529023754135 0.7942453823925425 C 48.92529023754135 0.5199209134385241 49.144411835946094 0.2731978797591401 49.44577444557731 0.2731978797591401 L 52.733725010843436 0.2731978797591401 C 53.007486185200015 0.2731978797591401 53.254209218879396 0.5199209134385241 53.254209218879396 0.7942453823925425 L 53.254209218879396 19.23313073504313 C 53.254209218879396 19.505765320204823 53.007486185200015 19.726013507804456 52.733725010843436 19.726013507804456 L 52.295481814033934 19.726013507804456 C 52.212677508210035 19.726013507804456 51.99411920440273 19.643209201980554 51.938916333853456 19.588006331431288 L 41.11690052780705 8.711350949433053 L 41.089862387129855 8.711350949433053 L 41.089862387129855 18.931204830814476 C 41.089862387129855 19.204966005171055 40.87074078872511 19.451689038850436 40.569378179093896 19.451689038850436 L 37.30959234369984 19.451689038850436 C 37.03526787474583 19.451689038850436 36.78910813566388 19.204966005171055 36.78910813566388 18.931204830814476 L 36.76150670038925 0.4934460673587729 Z " fill="rgb(42,92,255)"/><path d=" M 56.411644425918325 0.4934460673587729 C 56.411644425918325 0.21968489300219607 56.657804165000265 4.773959005888173e-15 56.932128633954285 4.773959005888173e-15 L 57.616531569845726 4.773959005888173e-15 L 68.54838982239323 10.52008990181776 L 68.57542796307042 10.52008990181776 L 68.57542796307042 0.7942453823925425 C 68.57542796307042 0.5199209134385241 68.79454956147518 0.2731978797591401 69.09591217110639 0.2731978797591401 L 72.38386273637252 0.2731978797591401 C 72.65818720532653 0.2731978797591401 72.90434694440847 0.5199209134385241 72.90434694440847 0.7942453823925425 L 72.90434694440847 19.23313073504313 C 72.90434694440847 19.505765320204823 72.65818720532653 19.726013507804456 72.38386273637252 19.726013507804456 L 71.94505624496557 19.726013507804456 C 71.86337852833655 19.726013507804456 71.6442569299318 19.643209201980554 71.58905405938253 19.588006331431288 L 60.767038253336125 8.711350949433053 L 60.740563407256374 8.711350949433053 L 60.740563407256374 18.931204830814476 C 60.740563407256374 19.204966005171055 60.520878514254186 19.451689038850436 60.21951590462297 19.451689038850436 L 56.95973006922892 19.451689038850436 C 56.685405600274905 19.451689038850436 56.43924586119296 19.204966005171055 56.43924586119296 18.931204830814476 L 56.411644425918325 0.4934460673587729 Z " fill="rgb(42,92,255)"/><path d=" M 74.56386915793092 0.7940763940133079 C 74.56386915793092 0.5203152196567311 74.78299075633568 0.27415548057478845 75.08491666056433 0.27415548057478845 L 86.42685338004925 0.27415548057478845 C 86.72765269508302 0.27415548057478845 86.94677429348778 0.5203152196567311 86.94677429348778 0.7940763940133079 L 86.94677429348778 3.7801010550507845 C 86.94677429348778 4.0549888186022445 86.72765269508302 4.301148557684187 86.42685338004925 4.301148557684187 L 78.83814856331715 4.301148557684187 L 78.83814856331715 7.698941569451412 L 85.08452235434612 7.698941569451412 C 85.35772023410526 7.698941569451412 85.60500656238207 7.945101308533355 85.60500656238207 8.218862482889932 L 85.60500656238207 11.206013733122292 C 85.60500656238207 11.506249753558619 85.35772023410526 11.72593464656081 85.08452235434612 11.72593464656081 L 78.83814856331715 11.72593464656081 L 78.83814856331715 15.423963678764364 L 86.42685338004925 15.423963678764364 C 86.72765269508302 15.423963678764364 86.94677429348778 15.67181330163863 86.94677429348778 15.944447886800326 L 86.94677429348778 18.931599137032684 C 86.94677429348778 19.205360311389263 86.72765269508302 19.452083345068647 86.42685338004925 19.452083345068647 L 75.08491666056433 19.452083345068647 C 74.78299075633568 19.452083345068647 74.56386915793092 19.205360311389263 74.56386915793092 18.931599137032684 L 74.56386915793092 0.7940763940133079 Z " fill="rgb(42,92,255)"/><path d=" M 97.58386048319414 0.00005632945974810637 C 100.32428869974711 0.00005632945974810637 102.35214925053658 0.8495045824015544 104.21440118967823 2.5478377936877252 C 104.46168751795506 2.767522686689917 104.46168751795506 3.095923436998321 104.2425659195503 3.315608330000512 L 102.1054262168572 5.534425749322644 C 101.91390605372708 5.725382617855318 101.61198014949842 5.725382617855318 101.42045998636831 5.534425749322644 C 100.40596641637615 4.630901215026452 99.063635390673 4.136891853070242 97.72074107037243 4.136891853070242 C 94.62600055202874 4.136891853070242 92.3514169675599 6.7122747525728546 92.3514169675599 9.780540424836792 C 92.3514169675599 12.82233125102098 94.65247539810849 15.34194798537688 97.74834250564707 15.34194798537688 C 99.03603395539837 15.34194798537688 100.43356785165078 14.876103353292745 101.42045998636831 14.02665510035094 C 101.61198014949842 13.862736372495458 101.9685456296789 13.862736372495458 102.13302765213183 14.054256535625575 L 104.27016735482493 16.328276825496975 C 104.46168751795506 16.520360283224534 104.43408608268042 16.87579917421013 104.2425659195503 17.06788263193769 C 102.37918739121378 18.876058289724952 100.0229260901159 19.726069837264202 97.58386048319414 19.726069837264202 C 92.10469393388051 19.726069837264202 87.69409723591345 15.368986126054072 87.69409723591345 9.890946165935329 C 87.69409723591345 4.410653027426819 92.10469393388051 0.00005632945974810637 97.58386048319414 0.00005632945974810637 Z " fill="rgb(42,92,255)"/><path d=" M 109.99363477104897 4.301204887143932 L 106.07535755124579 4.301204887143932 C 105.77399494161457 4.301204887143932 105.55487334320983 4.055045148061989 105.55487334320983 3.7801573845105296 L 105.55487334320983 0.7941327234730524 C 105.55487334320983 0.5203715491164758 105.77399494161457 0.274211810034533 106.07535755124579 0.274211810034533 L 118.23914108839789 0.274211810034533 C 118.54106699262654 0.274211810034533 118.7601885910313 0.5203715491164758 118.7601885910313 0.7941327234730524 L 118.7601885910313 3.7801573845105296 C 118.7601885910313 4.055045148061989 118.54106699262654 4.301204887143932 118.23914108839789 4.301204887143932 L 114.32142716319214 4.301204887143932 L 114.32142716319214 18.93165546649243 C 114.32142716319214 19.20541664084901 114.0752674241102 19.45157637993095 113.80150624975363 19.45157637993095 L 110.5135556844875 19.45157637993095 C 110.23979451013092 19.45157637993095 109.99363477104897 19.20541664084901 109.99363477104897 18.93165546649243 L 109.99363477104897 4.301204887143932 Z " fill="rgb(42,92,255)"/><path d=" M 120.48172953973203 0.7940763940133079 C 120.48172953973203 0.5203152196567311 120.72788927881398 0.27415548057478845 121.00165045317056 0.27415548057478845 L 124.28960101843668 0.27415548057478845 C 124.56336219279325 0.27415548057478845 124.8095219318752 0.5203152196567311 124.8095219318752 0.7940763940133079 L 124.8095219318752 18.931599137032684 C 124.8095219318752 19.205360311389263 124.56336219279325 19.452083345068647 124.28960101843668 19.452083345068647 L 121.00165045317056 19.452083345068647 C 120.72788927881398 19.452083345068647 120.48172953973203 19.205360311389263 120.48172953973203 18.931599137032684 L 120.48172953973203 0.7940763940133079 Z " fill="rgb(42,92,255)"/><path d=" M 135.92501422318864 15.342116973756113 C 138.9392036140982 15.342116973756113 141.4047440670997 12.876013226157156 141.4047440670997 9.89055185971712 C 141.4047440670997 6.875799174210126 138.9392036140982 4.383220580531418 135.92501422318864 4.383220580531418 C 132.93842626755372 4.383220580531418 130.47344910914964 6.875799174210126 130.47344910914964 9.89055185971712 C 130.47344910914964 12.876013226157156 132.93842626755372 15.342116973756113 135.92501422318864 15.342116973756113 Z  M 135.92501422318864 0.00022531783898038782 C 141.4047440670997 0.00022531783898038782 145.78773932979215 4.41025872120861 145.78773932979215 9.89055185971712 C 145.78773932979215 15.369155114433307 141.4047440670997 19.72567553104599 135.92501422318864 19.72567553104599 C 130.44584767387502 19.72567553104599 126.09045384645721 15.369155114433307 126.09045384645721 9.89055185971712 C 126.09045384645721 4.41025872120861 130.44584767387502 0.00022531783898038782 135.92501422318864 0.00022531783898038782 Z " fill="rgb(42,92,255)"/><path d=" M 147.04073183234107 0.4934460673587729 C 147.04073183234107 0.21968489300219607 147.286891571423 4.773959005888173e-15 147.56121604037702 4.773959005888173e-15 L 148.24505568167103 4.773959005888173e-15 L 159.1763506396211 10.52008990181776 L 159.20451536949315 10.52008990181776 L 159.20451536949315 0.7942453823925425 C 159.20451536949315 0.5199209134385241 159.42251037870304 0.2731978797591401 159.72499957752913 0.2731978797591401 L 163.01238684819782 0.2731978797591401 C 163.28614802255439 0.2731978797591401 163.53287105623377 0.5199209134385241 163.53287105623377 0.7942453823925425 L 163.53287105623377 19.23313073504313 C 163.53287105623377 19.505765320204823 163.28614802255439 19.726013507804456 163.01238684819782 19.726013507804456 L 162.5741436513883 19.726013507804456 C 162.49190264016187 19.726013507804456 162.2727810417571 19.643209201980554 162.21757817120783 19.588006331431288 L 151.39612565975887 8.711350949433053 L 151.3690875190817 8.711350949433053 L 151.3690875190817 18.931204830814476 C 151.3690875190817 19.204966005171055 151.14883933148204 19.451689038850436 150.84747672185082 19.451689038850436 L 147.58769088645678 19.451689038850436 C 147.31336641750275 19.451689038850436 147.06720667842083 19.204966005171055 147.06720667842083 18.931204830814476 L 147.04073183234107 0.4934460673587729 Z " fill="rgb(42,92,255)"/><path d=" M 20.506289184180442 10.935857644189342 C 20.23421789361619 9.232454781526197 20.818917685760482 7.427095596726138 22.16181200606106 6.092650695387186 C 24.338945625172517 3.930726030406648 27.715896736834406 3.6755535777656414 29.89866330192028 5.8729658023849955 L 28.390723664569343 7.380342145138492 L 35.336146051023235 8.164448224777082 C 35.336146051023235 8.164448224777082 34.574008460684865 1.5446101156443852 34.55598303356673 1.2150827761410987 L 32.822725557239195 2.948340252468644 C 28.96246768097248 -0.9395190590727012 22.6901823384612 -0.9958485188168513 18.802323026919858 2.866662535839625 C 16.716443132593923 4.937896770632079 15.784753868425653 7.7031099494724815 15.962754961217172 10.423259560517563 L 20.506289184180442 10.935857644189342 Z " fill="rgb(42,92,255)"/><path d=" M 31.458876677913793 9.139285855109367 C 31.592940792104873 10.72665003069956 30.999791580998956 12.36583730925437 29.757726993640414 13.599452477651292 C 27.580593374528956 15.76081384803439 24.20420555746451 16.015986300675397 22.022002286976075 13.819700665250924 L 23.52881533513213 12.311761027899987 L 16.583392948678235 11.527654948261397 C 16.583392948678235 11.527654948261397 17.344967244419166 18.148056351991535 17.363555966134733 18.47702039689738 L 19.095686853267395 16.744326215167277 C 22.957071318728993 20.63162223211118 29.22935666124027 20.68738839725789 33.117779267379056 16.826003931796297 C 35.105645901750165 14.852219662361223 36.04409470108774 12.245292265401886 35.97706264399219 9.649067465793939 L 31.458876677913793 9.139285855109367 Z " fill="rgb(42,92,255)"/><path d=" M 173.93089501878595 1.0685698513465611 C 173.93089501878595 0.7948086769899843 174.14945332259325 0.5480856433106002 174.45194252141934 0.5480856433106002 L 177.7117283568134 0.5480856433106002 C 177.98548953116997 0.5480856433106002 178.23221256484936 0.7948086769899843 178.23221256484936 1.0685698513465611 L 178.23221256484936 15.69902043069506 L 184.7523475302349 15.69902043069506 C 185.05427343446357 15.69902043069506 185.27283173827087 15.945743464374445 185.27283173827087 16.21894134413358 L 185.27283173827087 19.206092594365934 C 185.27283173827087 19.479290474125072 185.05427343446357 19.726013507804456 184.7523475302349 19.726013507804456 L 174.45194252141934 19.726013507804456 C 174.14945332259325 19.726013507804456 173.93089501878595 19.479290474125072 173.93089501878595 19.206092594365934 L 173.93089501878595 1.0685698513465611 Z " fill="rgb(42,92,255)"/><path d=" M 205.41433134114817 0.7674325595543202 C 205.41433134114817 0.4936713851977434 205.66105437482756 0.2739864921955521 205.93537884378156 0.2739864921955521 L 206.61921848507558 0.2739864921955521 L 217.5499501484282 10.794076394013308 L 217.57698828910537 10.794076394013308 L 217.57698828910537 1.0682318745880899 C 217.57698828910537 0.7939074056340715 217.79667318210758 0.5477476665521289 218.0980357917388 0.5477476665521289 L 221.38598635700492 0.5477476665521289 C 221.66031082595893 0.5477476665521289 221.90647056504088 0.7939074056340715 221.90647056504088 1.0682318745880899 L 221.90647056504088 19.507117227238677 C 221.90647056504088 19.77975181240037 221.66031082595893 20.000000000000004 221.38598635700492 20.000000000000004 L 220.94661657100053 20.000000000000004 C 220.86662873816385 20.000000000000004 220.64581725596676 19.9171956941761 220.59230426920982 19.861992823626835 L 209.76972516856597 8.9853374416286 L 209.74212373329135 8.9853374416286 L 209.74212373329135 19.205191323010023 C 209.74212373329135 19.479515791964044 209.52243884028914 19.725675531045983 209.2222028198528 19.725675531045983 L 205.96241698445877 19.725675531045983 C 205.68809251550474 19.725675531045983 205.44080618722793 19.479515791964044 205.44080618722793 19.205191323010023 L 205.41433134114817 0.7674325595543202 Z " fill="rgb(42,92,255)"/><path d=" M 194.98183374923258 8.375740028277397 L 194.98183374923258 8.375740028277397 L 189.9144355506487 19.725562872126506 L 189.25819734462934 19.725562872126506 L 186.21640651844515 19.725562872126506 C 185.8057647569103 19.725562872126506 185.58720645310297 19.370687275738348 185.75112518095847 19.012995206362987 L 194.3267221324081 0.5746731483098397 C 194.40783655443968 0.4096278312594759 194.59935671756978 0.2738738332760704 194.79200346989478 0.2738738332760704 L 195.17222732316782 0.2738738332760704 C 195.36487407549282 0.2738738332760704 195.55639423862291 0.4096278312594759 195.6375086606545 0.5746731483098397 L 204.21310561210416 19.012995206362987 C 204.37702433995963 19.370687275738348 204.1584660361523 19.725562872126506 203.74782427461744 19.725562872126506 L 200.70603344843326 19.725562872126506 C 200.21258738107448 19.725562872126506 199.9940290772672 19.560517555076142 199.7473060435878 19.04059664163762 L 194.98183374923258 8.375740028277397 Z " fill="rgb(42,92,255)"/><path d=" M 192.91403561148454 16.107859649518108 L 191.30413965199668 19.725900848884965 L 196.57488720025694 19.725900848884965 L 197.5809313512875 19.725900848884965 C 194.96837100835376 18.793648290119258 193.60632467174017 17.264866752662982 192.91403561148454 16.107859649518108 Z " fill="rgb(42,92,255)"/></svg>