<svg xmlns="http://www.w3.org/2000/svg" width="80.918" height="14.3848" viewBox="307.9609375 279.521484375 80.91796875 14.384765625"><path fill="#fff" d="M311.916 293.75q-.1172 0-.1172-.1172v-11.9922h-3.7207q-.117 0-.117-.1172v-1.8847q0-.1172.117-.1172h9.786q.117 0 .117.1172v1.8847q0 .1172-.117.1172h-3.711v11.9922q0 .1172-.117.1172h-2.119zm7.4805 0q-.1172 0-.1172-.1172v-9.9023q0-.1172.1172-.1172h1.9922q.1074 0 .1074.1172v9.9023q0 .1172-.107.1172h-1.992zm0-11.9043q-.1172 0-.1172-.1172v-1.9922q0-.1172.1172-.1172h1.9922q.1074 0 .1074.118v1.992q0 .117-.107.117h-1.992zm4.7754 11.9043q-.118 0-.118-.1172v-13.8965q0-.1172.117-.1172h1.992q.117 0 .117.118v8.379q.918-1.123 1.821-2.231.903-1.108 1.821-2.231.039-.039.088-.039h2.382q.078 0 .107.069.029.069-.02.127l-3.36 3.819q.967 1.504 1.919 2.974.952 1.47 1.919 2.974.039.069.01.122-.03.054-.108.054h-2.5q-.059 0-.098-.059l-2.549-4.482q-.351.41-.7174.811-.3667.401-.718.811v2.803q0 .117-.117.117h-1.992zm18.095-4.3164q0 .1172-.117.1172h-6.045q.029 1.0742.615 1.6308.644.586 1.631.586 1.171 0 2.089-.918.019-.0293.068-.0342.049-.005.088.0244l1.445 1.2305q.039.0293.039.078 0 .049-.03.088-.762.879-1.704 1.255-.943.376-1.968.376-1.573 0-3.018-1.006-1.485-1.0156-1.485-4.1406 0-2.9492 1.357-4.082 1.386-1.1328 2.842-1.1328 1.679 0 2.929 1.162 1.259 1.171 1.259 3.125v1.64zm-2.227-1.748q-.069-1.0157-.606-1.543-.537-.5274-1.358-.5274-.85 0-1.397.547-.254.2538-.401.6444-.147.3907-.176.879h3.935zm4.599 6.0644q-.117 0-.117-.1172v-9.9023q0-.1172.117-.1172h1.992q.117 0 .117.1172v.791q.937-1.0156 2.5-1.0156 1.045 0 1.699.39.293.176.566.385.273.21.518.464 1.201-1.241 3.135-1.241 1.181 0 2.304.898 1.113.908 1.113 2.646v6.582q0 .117-.118.117h-1.992q-.117 0-.117-.118v-5.898q0-.967-.518-1.485-.527-.527-1.318-.527-.821 0-1.348.527-.518.518-.518 1.484v5.898q0 .117-.108.117h-1.992q-.108 0-.108-.117v-5.898q0-.957-.5277-1.4848-.527-.527-1.318-.527-.82 0-1.3475.5274-.5073.508-.5073 1.4845v5.8983q0 .1177-.117.1177h-1.992zm22.119.039q-.118 0-.118-.117v-.547q-.137.1758-.317.3076-.181.132-.386.21-.303.127-.708.1953-.405.068-.884.068-1.68-.039-2.559-.918v.01q-.957-.869-.957-2.237 0-1.28.82-2.158.84-.879 2.422-.899h2.568v-.928q.02-1.211-1.855-1.162-.342 0-.615.029-.274.029-.498.107h.009q-.196.097-.352.239-.156.141-.263.337-.069.117-.176.029l-1.524-1.201q-.039-.03-.049-.074-.01-.044.0194-.083 1.133-1.534 3.3495-1.485.928-.01 1.66.166.7327.176 1.309.556 1.133.801 1.143 2.646v6.787q0 .117-.117.117h-1.924zm-.118-4.209h-2.207q-1.572.049-1.563 1.084 0 .4395.4.7813.41.3613 1.308.3613 1.201.0098 1.66-.2832h-.01q.41-.2734.41-1.328v-.6153zm4.57 4.1798q-.118 0-.118-.1172v-8.2715h-.879q-.117 0-.117-.117v-1.523q0-.117.117-.117h.879v-1.484l2.021-2.158q.058-.058.132-.029.073.03.073.108v3.565h1.328q.117 0 .117.117v1.524q0 .117-.117.117h-1.328v8.272q0 .117-.117.117h-1.992zm5.498-.0098q-.118 0-.118-.1172v-9.9023q0-.1172.117-.1172h1.992q.107 0 .107.1172v9.9023q0 .1172-.108.1172h-1.992zm0-11.9043q-.118 0-.118-.1172v-1.9922q0-.1172.117-.1172h1.992q.107 0 .107.118v1.992q0 .117-.108.117h-1.992zm12.128 10.1074q.039.03.039.079t-.029.088q-.332.381-.728.699t-.855.552q-.459.235-.9768.367-.5176.132-1.094.132-1.738 0-3.1833-1.191-1.4256-1.211-1.4256-3.984 0-2.783 1.426-3.974 1.416-1.211 3.184-1.211.576 0 1.0937.132.5177.132.9767.366.459.235.855.552.3954.317.7274.698.029.039.029.088 0 .049-.039.078l-1.4746 1.309q-.039.039-.088.035-.0483-.005-.068-.044-.82-.996-1.9334-.996-2.461 0-2.461 2.969 0 2.959 2.461 2.959 1.152 0 1.9336-.996.0195-.029.0683-.039.049-.01.088.02l1.474 1.318z"/></svg>
