<?xml version="1.0" standalone="no"?><!-- Generator: Gravit.io --><svg xmlns="http://www.w3.org/2000/svg" xmlns:xlink="http://www.w3.org/1999/xlink" style="isolation:isolate" viewBox="0 0 65 12" width="65" height="12"><path d=" M 3.1640625 11.3828125 Q 3.0703125 11.3828125 3.0703125 11.2890625 L 3.0703125 1.6953125 L 0.09375 1.6953125 Q 0 1.6953125 0 1.6015625 L 0 0.09375 Q 0 0 0.09375 0 L 7.921875 0 Q 8.015625 0 8.015625 0.09375 L 8.015625 1.6015625 Q 8.015625 1.6953125 7.921875 1.6953125 L 4.953125 1.6953125 L 4.953125 11.2890625 Q 4.953125 11.3828125 4.859375 11.3828125 L 3.1640625 11.3828125 Z  M 9.1484375 11.3828125 Q 9.0546875 11.3828125 9.0546875 11.2890625 L 9.0546875 3.3671875 Q 9.0546875 3.2734375 9.1484375 3.2734375 L 10.7421875 3.2734375 Q 10.828125 3.2734375 10.828125 3.3671875 L 10.828125 11.2890625 Q 10.828125 11.3828125 10.7421875 11.3828125 L 9.1484375 11.3828125 Z  M 9.1484375 1.859375 Q 9.0546875 1.859375 9.0546875 1.765625 L 9.0546875 0.171875 Q 9.0546875 0.078125 9.1484375 0.078125 L 10.7421875 0.078125 Q 10.828125 0.078125 10.828125 0.171875 L 10.828125 1.765625 Q 10.828125 1.859375 10.7421875 1.859375 L 9.1484375 1.859375 Z  M 12.96875 11.3828125 Q 12.875 11.3828125 12.875 11.2890625 L 12.875 0.171875 Q 12.875 0.078125 12.96875 0.078125 L 14.5625 0.078125 Q 14.65625 0.078125 14.65625 0.171875 L 14.65625 6.875 Q 15.390625 5.9765625 16.11328125 5.08984375 Q 16.8359375 4.203125 17.5703125 3.3046875 Q 17.6015625 3.2734375 17.640625 3.2734375 L 19.546875 3.2734375 Q 19.609375 3.2734375 19.6328125 3.328125 Q 19.65625 3.3828125 19.6171875 3.4296875 L 16.9296875 6.484375 Q 17.703125 7.6875 18.46484375 8.86328125 Q 19.2265625 10.0390625 20 11.2421875 Q 20.03125 11.296875 20.0078125 11.33984375 Q 19.984375 11.3828125 19.921875 11.3828125 L 17.921875 11.3828125 Q 17.875 11.3828125 17.84375 11.3359375 L 15.8046875 7.75 Q 15.5234375 8.078125 15.23046875 8.3984375 Q 14.9375 8.71875 14.65625 9.046875 L 14.65625 11.2890625 Q 14.65625 11.3828125 14.5625 11.3828125 L 12.96875 11.3828125 Z  M 27.4453125 7.9296875 Q 27.4453125 8.0234375 27.3515625 8.0234375 L 22.515625 8.0234375 Q 22.5390625 8.8828125 23.0078125 9.328125 Q 23.5234375 9.796875 24.3125 9.796875 Q 25.25 9.796875 25.984375 9.0625 Q 26 9.0390625 26.0390625 9.03515625 Q 26.078125 9.03125 26.109375 9.0546875 L 27.265625 10.0390625 Q 27.296875 10.0625 27.296875 10.1015625 Q 27.296875 10.140625 27.2734375 10.171875 Q 26.6640625 10.875 25.91015625 11.17578125 Q 25.15625 11.4765625 24.3359375 11.4765625 Q 23.078125 11.4765625 21.921875 10.671875 Q 20.734375 9.859375 20.734375 7.359375 Q 20.734375 5 21.8203125 4.09375 Q 22.9296875 3.1875 24.09375 3.1875 Q 25.4375 3.1875 26.4375 4.1171875 Q 27.4453125 5.0546875 27.4453125 6.6171875 L 27.4453125 7.9296875 Z  M 25.6640625 6.53125 Q 25.609375 5.71875 25.1796875 5.296875 Q 24.75 4.875 24.09375 4.875 Q 23.4140625 4.875 22.9765625 5.3125 Q 22.7734375 5.515625 22.65625 5.828125 Q 22.5390625 6.140625 22.515625 6.53125 L 25.6640625 6.53125 Z  M 29.34375 11.3828125 Q 29.25 11.3828125 29.25 11.2890625 L 29.25 3.3671875 Q 29.25 3.2734375 29.34375 3.2734375 L 30.9375 3.2734375 Q 31.03125 3.2734375 31.03125 3.3671875 L 31.03125 4 Q 31.78125 3.1875 33.03125 3.1875 Q 33.8671875 3.1875 34.390625 3.5 Q 34.625 3.640625 34.84375 3.80859375 Q 35.0625 3.9765625 35.2578125 4.1796875 Q 36.21875 3.1875 37.765625 3.1875 Q 38.7109375 3.1875 39.609375 3.90625 Q 40.5 4.6328125 40.5 6.0234375 L 40.5 11.2890625 Q 40.5 11.3828125 40.40625 11.3828125 L 38.8125 11.3828125 Q 38.71875 11.3828125 38.71875 11.2890625 L 38.71875 6.5703125 Q 38.71875 5.796875 38.3046875 5.3828125 Q 37.8828125 4.9609375 37.25 4.9609375 Q 36.59375 4.9609375 36.171875 5.3828125 Q 35.7578125 5.796875 35.7578125 6.5703125 L 35.7578125 11.2890625 Q 35.7578125 11.3828125 35.671875 11.3828125 L 34.078125 11.3828125 Q 33.9921875 11.3828125 33.9921875 11.2890625 L 33.9921875 6.5703125 Q 33.9921875 5.8046875 33.5703125 5.3828125 Q 33.1484375 4.9609375 32.515625 4.9609375 Q 31.859375 4.9609375 31.4375 5.3828125 Q 31.03125 5.7890625 31.03125 6.5703125 L 31.03125 11.2890625 Q 31.03125 11.3828125 30.9375 11.3828125 L 29.34375 11.3828125 Z  M 47.0390625 11.4140625 Q 46.9453125 11.4140625 46.9453125 11.3203125 L 46.9453125 10.8828125 Q 46.8359375 11.0234375 46.69140625 11.12890625 Q 46.546875 11.234375 46.3828125 11.296875 Q 46.140625 11.3984375 45.81640625 11.453125 Q 45.4921875 11.5078125 45.109375 11.5078125 Q 43.765625 11.4765625 43.0625 10.7734375 L 43.0625 10.78125 Q 42.296875 10.0859375 42.296875 8.9921875 Q 42.296875 7.96875 42.953125 7.265625 Q 43.625 6.5625 44.890625 6.546875 L 46.9453125 6.546875 L 46.9453125 5.8046875 Q 46.9609375 4.8359375 45.4609375 4.875 Q 45.1875 4.875 44.96875 4.8984375 Q 44.75 4.921875 44.5703125 4.984375 L 44.578125 4.984375 Q 44.421875 5.0625 44.296875 5.17578125 Q 44.171875 5.2890625 44.0859375 5.4453125 Q 44.03125 5.5390625 43.9453125 5.46875 L 42.7265625 4.5078125 Q 42.6953125 4.484375 42.6875 4.44921875 Q 42.6796875 4.4140625 42.703125 4.3828125 Q 43.609375 3.15625 45.3828125 3.1953125 Q 46.125 3.1875 46.7109375 3.328125 Q 47.296875 3.46875 47.7578125 3.7734375 Q 48.6640625 4.4140625 48.671875 5.890625 L 48.671875 11.3203125 Q 48.671875 11.4140625 48.578125 11.4140625 L 47.0390625 11.4140625 Z  M 46.9453125 8.046875 L 45.1796875 8.046875 Q 43.921875 8.0859375 43.9296875 8.9140625 Q 43.9296875 9.265625 44.25 9.5390625 Q 44.578125 9.828125 45.296875 9.828125 Q 46.2578125 9.8359375 46.625 9.6015625 L 46.6171875 9.6015625 Q 46.9453125 9.3828125 46.9453125 8.5390625 L 46.9453125 8.046875 Z  M 50.6015625 11.390625 Q 50.5078125 11.390625 50.5078125 11.296875 L 50.5078125 4.6796875 L 49.8046875 4.6796875 Q 49.7109375 4.6796875 49.7109375 4.5859375 L 49.7109375 3.3671875 Q 49.7109375 3.2734375 49.8046875 3.2734375 L 50.5078125 3.2734375 L 50.5078125 2.0859375 L 52.125 0.359375 Q 52.171875 0.3125 52.23046875 0.3359375 Q 52.2890625 0.359375 52.2890625 0.421875 L 52.2890625 3.2734375 L 53.3515625 3.2734375 Q 53.4453125 3.2734375 53.4453125 3.3671875 L 53.4453125 4.5859375 Q 53.4453125 4.6796875 53.3515625 4.6796875 L 52.2890625 4.6796875 L 52.2890625 11.296875 Q 52.2890625 11.390625 52.1953125 11.390625 L 50.6015625 11.390625 Z  M 55 11.3828125 Q 54.90625 11.3828125 54.90625 11.2890625 L 54.90625 3.3671875 Q 54.90625 3.2734375 55 3.2734375 L 56.59375 3.2734375 Q 56.6796875 3.2734375 56.6796875 3.3671875 L 56.6796875 11.2890625 Q 56.6796875 11.3828125 56.59375 11.3828125 L 55 11.3828125 Z  M 55 1.859375 Q 54.90625 1.859375 54.90625 1.765625 L 54.90625 0.171875 Q 54.90625 0.078125 55 0.078125 L 56.59375 0.078125 Q 56.6796875 0.078125 56.6796875 0.171875 L 56.6796875 1.765625 Q 56.6796875 1.859375 56.59375 1.859375 L 55 1.859375 Z  M 64.703125 9.9453125 Q 64.734375 9.96875 64.734375 10.0078125 Q 64.734375 10.046875 64.7109375 10.078125 Q 64.4453125 10.3828125 64.12890625 10.63671875 Q 63.8125 10.890625 63.4453125 11.078125 Q 63.078125 11.265625 62.6640625 11.37109375 Q 62.25 11.4765625 61.7890625 11.4765625 Q 60.3984375 11.4765625 59.2421875 10.5234375 Q 58.1015625 9.5546875 58.1015625 7.3359375 Q 58.1015625 5.109375 59.2421875 4.15625 Q 60.375 3.1875 61.7890625 3.1875 Q 62.25 3.1875 62.6640625 3.29296875 Q 63.078125 3.3984375 63.4453125 3.5859375 Q 63.8125 3.7734375 64.12890625 4.02734375 Q 64.4453125 4.28125 64.7109375 4.5859375 Q 64.734375 4.6171875 64.734375 4.65625 Q 64.734375 4.6953125 64.703125 4.71875 L 63.5234375 5.765625 Q 63.4921875 5.796875 63.453125 5.79296875 Q 63.4140625 5.7890625 63.3984375 5.7578125 Q 62.7421875 4.9609375 61.8515625 4.9609375 Q 59.8828125 4.9609375 59.8828125 7.3359375 Q 59.8828125 9.703125 61.8515625 9.703125 Q 62.7734375 9.703125 63.3984375 8.90625 Q 63.4140625 8.8828125 63.453125 8.875 Q 63.4921875 8.8671875 63.5234375 8.890625 L 64.703125 9.9453125 Z " fill-rule="evenodd" fill="rgb(145,146,151)"/></svg>